<svg width="19" height="16" viewBox="0 0 19 16" fill="none" xmlns="http://www.w3.org/2000/svg">
<path d="M4.59851 1.40061C4.55589 1.24983 4.35263 1.09634 4.19571 1.09634H0.824196C0.52091 1.09634 0.27503 0.850979 0.27503 0.54817C0.27503 0.245361 0.52091 0 0.824196 0H4.19571C4.83934 0 5.48054 0.48429 5.65547 1.10255L6.56628 4.32016C6.67041 4.29122 6.78009 4.27448 6.89417 4.27448H17.7872C18.1339 4.27448 18.463 4.41803 18.6901 4.66829C18.9173 4.91855 19.028 5.25958 18.9939 5.60383L18.4859 10.7441C18.4182 11.4291 17.8249 11.9657 17.1353 11.9657H8.68065C8.03432 11.9657 7.39589 11.4779 7.22719 10.8552L6.16796 6.94531L4.59851 1.40061ZM8.28752 10.569C8.32779 10.7178 8.5263 10.8694 8.68072 10.8694H17.1353C17.2559 10.8694 17.3811 10.7562 17.3929 10.6364L17.901 5.49617C17.9048 5.45816 17.8963 5.42644 17.8763 5.40452C17.8563 5.38252 17.8256 5.3709 17.7872 5.3709H6.89417C6.88883 5.3709 6.88414 5.37111 6.88004 5.37141C6.88077 5.3755 6.88187 5.38003 6.88326 5.38515L8.28752 10.569Z" fill="white"/>
<path d="M15.5308 12.5898C16.4727 12.5898 17.239 13.3547 17.239 14.2949C17.239 15.235 16.4727 15.9999 15.5308 15.9999C14.5889 15.9999 13.8227 15.235 13.8227 14.2949C13.8227 13.3547 14.5889 12.5898 15.5308 12.5898ZM15.5308 14.9036C15.8671 14.9036 16.1407 14.6305 16.1407 14.2949C16.1407 13.9592 15.8671 13.6862 15.5308 13.6862C15.1946 13.6862 14.921 13.9592 14.921 14.2949C14.921 14.6305 15.1946 14.9036 15.5308 14.9036Z" fill="white"/>
<path d="M10.1148 12.5898C11.0566 12.5898 11.8229 13.3547 11.8229 14.2949C11.8229 15.235 11.0566 15.9999 10.1148 15.9999C9.17292 15.9999 8.40665 15.235 8.40665 14.2949C8.40665 13.3547 9.17285 12.5898 10.1148 12.5898ZM10.1148 14.9036C10.451 14.9036 10.7246 14.6305 10.7246 14.2949C10.7246 13.9592 10.451 13.6862 10.1148 13.6862C9.77854 13.6862 9.50499 13.9592 9.50499 14.2949C9.50499 14.6305 9.77847 14.9036 10.1148 14.9036Z" fill="white"/>
<path d="M0.366111 4.45703H4.33058C4.53275 4.45703 4.69669 4.62061 4.69669 4.82248C4.69669 5.02435 4.53275 5.18792 4.33058 5.18792H0.366111C0.163945 5.18792 0 5.02435 0 4.82248C0 4.62061 0.163945 4.45703 0.366111 4.45703Z" fill="white"/>
<path d="M1.46333 6.1582H4.98803C5.19019 6.1582 5.35414 6.32178 5.35414 6.52365C5.35414 6.72552 5.19019 6.8891 4.98803 6.8891H1.46333C1.26116 6.8891 1.09722 6.72552 1.09722 6.52365C1.09722 6.32178 1.26116 6.1582 1.46333 6.1582Z" fill="white"/>
<path d="M2.4186 7.85938H5.43023C5.6324 7.85938 5.79635 8.02295 5.79635 8.22482C5.79635 8.42669 5.6324 8.59027 5.43023 8.59027H2.4186C2.21644 8.59027 2.05249 8.42669 2.05249 8.22482C2.05249 8.02295 2.21644 7.85938 2.4186 7.85938Z" fill="white"/>
</svg>
