<svg width="20" height="20" viewBox="0 0 20 20" fill="none" xmlns="http://www.w3.org/2000/svg">
<path d="M18.8969 0H1.10312C0.79936 0 0.535572 0.11191 0.311751 0.335731C0.103917 0.543565 0 0.799361 0 1.10312V18.8969C0 19.2006 0.103917 19.4564 0.311751 19.6643C0.535572 19.8881 0.79936 20 1.10312 20H10.6715V12.2542H8.08154V9.2566H10.6715V7.0024C10.6235 6.47482 10.6875 5.95524 10.8633 5.44365C11.0392 4.93205 11.311 4.48441 11.6787 4.10072C12.0624 3.71703 12.502 3.42926 12.9976 3.23741C13.4932 3.04556 14.0128 2.96563 14.5564 2.9976C15.3397 2.9976 16.1151 3.03757 16.8825 3.11751V5.82734H15.2998C14.7082 5.82734 14.3006 5.96323 14.0767 6.23501C13.8849 6.45883 13.789 6.81055 13.789 7.29017V9.20863H16.7866L16.4029 12.2062H13.789V20H18.8969C19.2006 20 19.4564 19.8881 19.6643 19.6643C19.8881 19.4564 20 19.2006 20 18.8969V1.10312C20 0.799361 19.8881 0.543565 19.6643 0.335731C19.4564 0.11191 19.2006 0 18.8969 0Z" fill="#1877F2"/>
</svg>
