<svg width="14" height="18" viewBox="0 0 14 18" fill="none" xmlns="http://www.w3.org/2000/svg">
<path d="M8.04237 2.53799C7.57022 2.00853 7.14528 1.53957 6.81477 1.14625C6.79903 1.116 6.76755 1.10087 6.75182 1.08574C6.57869 0.949593 6.32688 0.979849 6.18523 1.14625C5.85472 1.53957 5.42978 2.00853 4.95763 2.53799C2.88015 4.86765 0 8.07471 0 10.7523C0 10.8279 0 10.8884 0 10.9641C0 10.9943 0 11.0397 0 11.07C0 11.1002 0.0157386 11.1305 0.0157386 11.1759C0.125908 12.734 0.818402 14.1409 1.90436 15.1696C3.08475 16.3041 4.70581 17 6.5 17C8.29419 17 9.91525 16.3041 11.0956 15.1696C12.0714 14.2316 12.7324 12.9912 12.937 11.6146C12.9528 11.4935 12.9685 11.3574 12.9843 11.2213C13 11.07 13 10.9036 13 10.7372C13 8.05958 10.1199 4.85252 8.04237 2.53799ZM10.5291 14.625C9.49031 15.6083 8.07385 16.2285 6.5 16.2285C4.92615 16.2285 3.50969 15.6083 2.47094 14.625C1.49516 13.6871 0.865617 12.3861 0.802663 10.9641C0.83414 10.2985 1.11743 9.70849 1.57385 9.26979C2.046 8.81596 2.70702 8.52853 3.44673 8.52853C4.18644 8.52853 4.83172 8.81596 5.31961 9.26979C5.79177 9.72362 6.0908 10.359 6.0908 11.07C6.0908 11.9776 6.48426 12.8097 7.09806 13.4148C7.7276 14.0199 8.57748 14.3829 9.53753 14.3829C10.0884 14.3829 10.592 14.2619 11.0642 14.035C10.9068 14.2468 10.7179 14.4434 10.5291 14.625ZM12.1973 11.0095C12.1973 11.0246 12.1973 11.0397 12.1973 11.0548C12.1973 11.0851 12.1973 11.1154 12.1973 11.1305C12.1816 11.2666 12.1816 11.3877 12.1501 11.5238C12.0557 12.0381 11.7881 12.492 11.4262 12.855C10.954 13.3089 10.293 13.5963 9.55327 13.5963C8.8293 13.5963 8.16828 13.3089 7.68039 12.855C7.20823 12.4012 6.9092 11.7658 6.9092 11.0548C6.9092 10.1472 6.53148 9.31517 5.90194 8.71007C5.2724 8.10496 4.42252 7.7419 3.46247 7.7419C2.75424 7.7419 2.09322 7.95369 1.54237 8.30162C2.47094 6.50143 4.20218 4.58022 5.57143 3.05233C5.90194 2.67414 6.21671 2.32621 6.5 1.9934C6.78329 2.32621 7.09806 2.67414 7.42857 3.03721C9.42736 5.26097 12.1973 8.33188 12.1973 10.7372C12.1973 10.8279 12.1973 10.9187 12.1973 11.0095Z" fill="white" stroke="white" stroke-width="0.5"/>
</svg>
