<svg width="14" height="18" viewBox="0 0 14 18" fill="none" xmlns="http://www.w3.org/2000/svg">
<path d="M6.50331 17C4.78089 16.9981 3.12957 16.3415 1.91163 15.1743C0.693692 14.007 0.00859518 12.4244 0.00663835 10.7737C0.000437414 10.6921 -0.140276 8.40111 1.26233 6.75082C1.29495 6.71249 1.33967 6.68534 1.38977 6.67345C1.43987 6.66155 1.49264 6.66555 1.54016 6.68484C1.58768 6.70414 1.62739 6.73769 1.65333 6.78045C1.67926 6.82322 1.69002 6.87289 1.68399 6.92202C1.57166 7.83197 1.73598 8.53962 2.15932 8.96888C2.25493 9.06563 2.37536 9.13665 2.50857 9.17483C2.64178 9.21301 2.78311 9.21703 2.91845 9.18648C3.04831 9.16172 3.16911 9.10474 3.2688 9.02124C3.36849 8.93773 3.44358 8.83062 3.48655 8.7106C3.74032 7.98579 3.43432 7.06876 3.43122 7.05962C3.42832 7.05132 3.42601 7.04285 3.42431 7.03425C2.93515 4.70281 5.44891 3.33709 5.47539 3.32361C6.58368 2.75218 6.27435 1.29069 6.27125 1.27606C6.26232 1.23575 6.26492 1.19388 6.27878 1.15487C6.29265 1.11587 6.31726 1.08118 6.35 1.05448C6.38275 1.02778 6.42242 1.01006 6.46482 1.00319C6.50721 0.99633 6.55075 1.00058 6.59084 1.01549C8.40103 1.6884 8.153 3.7675 7.76377 4.79196C7.40721 6.78282 8.68008 7.40934 8.92597 7.51059C9.12835 7.51365 9.32898 7.47433 9.51386 7.39537C9.69874 7.31641 9.8634 7.19972 9.99634 7.05345C10.6224 6.34122 10.4242 5.03104 10.4221 5.01801C10.4145 4.97055 10.4227 4.92201 10.4455 4.87926C10.4683 4.83652 10.5046 4.80176 10.5492 4.7799C10.5939 4.75804 10.6445 4.75021 10.694 4.7575C10.7436 4.76479 10.7894 4.78684 10.8251 4.82053C12.9318 6.80431 12.9981 10.6096 13 10.7707C13.0017 11.449 12.8862 12.1229 12.658 12.765C12.637 12.8218 12.5935 12.8683 12.5369 12.8945C12.4804 12.9207 12.4153 12.9245 12.3559 12.9049C12.2964 12.8854 12.2474 12.8442 12.2195 12.7903C12.1916 12.7364 12.187 12.6741 12.2067 12.6169C12.4176 12.0234 12.5244 11.4006 12.523 10.7737C12.523 10.7415 12.4662 7.57665 10.9301 5.62853C10.9162 6.14282 10.8039 6.84339 10.3622 7.34716C10.1799 7.54887 9.95312 7.70929 9.69828 7.81684C9.44344 7.92439 9.16687 7.9764 8.88852 7.96911C8.85975 7.96917 8.83116 7.96477 8.80386 7.95608C8.78406 7.94922 6.82814 7.25391 7.29631 4.69321C7.29873 4.67957 7.30248 4.66618 7.30752 4.65321C7.46665 4.20381 7.55193 3.73343 7.56033 3.25892C7.56152 2.50029 7.30204 1.95217 6.78831 1.62395C6.81216 2.20635 6.69506 3.21229 5.70291 3.72407C5.61467 3.77138 3.48035 4.9371 3.89033 6.93116C3.93326 7.06351 4.2278 8.0322 3.93994 8.85505C3.87106 9.05026 3.74999 9.22475 3.58879 9.36111C3.42759 9.49747 3.2319 9.59094 3.02125 9.6322C2.80537 9.68007 2.58017 9.67284 2.36812 9.61124C2.15607 9.54963 1.96458 9.4358 1.81278 9.28111C1.40967 8.84092 1.18532 8.27638 1.18076 7.69071C0.687031 8.64202 0.447644 9.69599 0.48411 10.7579C0.482653 12.2898 1.11581 13.7596 2.24446 14.8443C3.37311 15.929 4.90492 16.5399 6.50331 16.5429C6.83679 16.5433 7.16971 16.5168 7.49856 16.4638C7.56093 16.4536 7.62495 16.4676 7.67654 16.5027C7.72814 16.5378 7.76307 16.5911 7.77367 16.6509C7.78426 16.7106 7.76965 16.772 7.73304 16.8214C7.69643 16.8709 7.64082 16.9044 7.57846 16.9145C7.2232 16.9718 6.86356 17.0004 6.50331 17V17Z" fill="#000" stroke="#000" stroke-width="0.6"/>
</svg>
