<svg width="20" height="20" viewBox="0 0 20 20" fill="none" xmlns="http://www.w3.org/2000/svg">
<path d="M18.3933 0H1.46283C1.06315 0 0.719424 0.143885 0.431655 0.431655C0.143885 0.703437 0 1.03917 0 1.43885V18.5612C0 18.9608 0.143885 19.2966 0.431655 19.5683C0.719424 19.8561 1.06315 20 1.46283 20H18.3933C18.793 20 19.1367 19.8561 19.4245 19.5683C19.7122 19.2966 19.8561 18.9608 19.8561 18.5612V1.43885C19.8561 1.03917 19.7122 0.703437 19.4245 0.431655C19.1367 0.143885 18.793 0 18.3933 0ZM6.01918 16.7386H3.02158V7.7458H6.01918V16.7386ZM4.53237 6.47482C4.10072 6.47482 3.73301 6.32294 3.42926 6.01918C3.1255 5.71543 2.97362 5.34772 2.97362 4.91607C2.97362 4.48441 3.1255 4.11671 3.42926 3.81295C3.73301 3.50919 4.10072 3.35731 4.53237 3.35731C4.96403 3.35731 5.33174 3.50919 5.63549 3.81295C5.93925 4.11671 6.09113 4.48441 6.09113 4.91607C6.09113 5.34772 5.93925 5.71543 5.63549 6.01918C5.33174 6.32294 4.96403 6.47482 4.53237 6.47482ZM16.8345 16.7386H13.8369V11.9185C13.8369 10.5755 13.3333 9.90408 12.3261 9.90408C11.9744 9.90408 11.6547 10.008 11.3669 10.2158C11.0791 10.4077 10.8793 10.6715 10.7674 11.0072C10.6874 11.247 10.6555 11.4868 10.6715 11.7266V16.7146H7.67386V7.72182H10.6715V8.99281C10.9432 8.51319 11.3189 8.14548 11.7986 7.88969C12.2942 7.61791 12.8217 7.49001 13.3813 7.50599C14.4365 7.50599 15.2678 7.83373 15.8753 8.48921C16.5148 9.20863 16.8345 10.2318 16.8345 11.5588V16.7386Z" fill="#0A66C2"/>
</svg>
