<svg width="127" height="22" viewBox="0 0 127 22" fill="none" xmlns="http://www.w3.org/2000/svg">
<path d="M37.0101 8.37399V10.4528H33.5136V14.4378C33.5136 14.9154 33.643 15.2926 33.9058 15.5695C34.1667 15.8464 34.5271 15.9849 34.989 15.9849C35.6123 15.9849 36.2873 15.7963 37.0121 15.4211V17.6243C36.0503 18.0276 35.1185 18.2282 34.2165 18.2282C33.0377 18.2282 32.1217 17.9212 31.4726 17.3072C30.8215 16.6932 30.4969 15.7903 30.4969 14.6024V10.4528H29.125V9.85885L33.1392 5.33203H33.5156V8.37399H37.0101Z" fill="#15A959"/>
<path d="M41.6241 3.73242V9.78623H41.6659C42.5062 8.7067 43.5197 8.16693 44.7045 8.16693C45.7279 8.16693 46.5702 8.494 47.2313 9.14614C47.8923 9.80028 48.2229 10.7072 48.2229 11.8691V18.0412H45.2042V12.5132C45.2042 11.1045 44.6865 10.4002 43.6491 10.4002C42.9642 10.4002 42.2912 10.8898 41.6261 11.867V18.0412H38.6055V3.73242H41.6241Z" fill="#15A959"/>
<path d="M57.3198 18.0427V16.6602C56.4318 17.7056 55.3983 18.2273 54.2196 18.2273C53.1762 18.2273 52.3299 17.9022 51.6788 17.2541C51.0277 16.606 50.7031 15.707 50.7031 14.5613V8.37305H53.7218V14.3466C53.7218 15.5746 54.2255 16.1886 55.237 16.1886C55.8065 16.1886 56.2924 15.9659 56.6966 15.5184C57.0988 15.071 57.3019 14.7419 57.3019 14.5312V8.37305H60.3404V18.0427H57.3198Z" fill="#15A959"/>
<path d="M67.7912 8.16797C69.2946 8.16797 70.5709 8.61142 71.6183 9.50033C72.6657 10.3892 73.1893 11.6273 73.1893 13.2125C73.1893 14.8057 72.6577 16.0397 71.5924 16.9146C70.5291 17.7895 69.2607 18.2269 67.7912 18.2269C66.1983 18.2269 64.8961 17.7594 63.8825 16.8263C62.869 15.8933 62.3633 14.6813 62.3633 13.1924C62.3633 11.6754 62.879 10.4575 63.9124 9.54247C64.9458 8.62547 66.2381 8.16797 67.7912 8.16797ZM67.7912 16.423C69.2348 16.423 69.9557 15.3254 69.9557 13.1302C69.9557 11.0313 69.2348 9.9799 67.7912 9.9799C67.1003 9.9799 66.5587 10.2568 66.1704 10.8106C65.7801 11.3644 65.585 12.157 65.585 13.1904C65.585 15.3475 66.3198 16.423 67.7912 16.423Z" fill="#15A959"/>
<path d="M83.598 15.3996V17.5807C82.4192 18.0101 81.338 18.2268 80.3543 18.2268C78.6678 18.2268 77.3178 17.7713 76.3083 16.8584C75.2987 15.9454 74.793 14.7374 74.793 13.2345C74.793 11.7657 75.3027 10.5537 76.3222 9.6006C77.3417 8.64748 78.6419 8.16992 80.2209 8.16992C81.2364 8.16992 82.3157 8.38262 83.4526 8.804V11.0674C82.6203 10.638 81.7999 10.4213 80.9935 10.4213C80.0915 10.4213 79.3707 10.6741 78.8291 11.1818C78.2875 11.6874 78.0167 12.3657 78.0167 13.2124C78.0167 14.0672 78.2815 14.7575 78.8092 15.2792C79.3388 15.8029 80.0318 16.0638 80.894 16.0638C81.5291 16.0658 82.4311 15.843 83.598 15.3996Z" fill="#15A959"/>
<path d="M92.2153 8.88431V11.0454C91.0624 10.3351 89.9951 9.9799 89.0135 9.9799C88.2887 9.9799 87.9263 10.2287 87.9263 10.7283C87.9263 10.8588 88.002 10.9872 88.1553 11.1116C88.3086 11.238 88.892 11.5049 89.9095 11.9122C90.925 12.3196 91.6438 12.7911 92.064 13.3248C92.4841 13.8586 92.6932 14.4425 92.6932 15.0786C92.6932 16.0839 92.3547 16.8584 91.6757 17.4062C90.9987 17.954 90.033 18.2269 88.7785 18.2269C87.4902 18.2269 86.3453 17.9921 85.3437 17.5206V15.3796C86.5763 15.9254 87.6097 16.1983 88.444 16.1983C89.4197 16.1983 89.9075 15.9595 89.9075 15.4839C89.9075 15.2993 89.8159 15.1267 89.6367 14.9622C89.4555 14.7997 88.8522 14.5147 87.8227 14.1094C86.7933 13.7041 86.0904 13.2586 85.7101 12.773C85.3298 12.2875 85.1406 11.7477 85.1406 11.1517C85.1406 10.2709 85.505 9.5525 86.2338 8.99869C86.9626 8.44487 87.9223 8.16797 89.115 8.16797C90.26 8.16797 91.2934 8.40675 92.2153 8.88431Z" fill="#15A959"/>
<path d="M94.3984 5.22832C94.3984 4.76481 94.5617 4.36751 94.8863 4.04044C95.2108 3.71337 95.6011 3.54883 96.0551 3.54883C96.5151 3.54883 96.9093 3.71337 97.2339 4.04044C97.5584 4.36751 97.7217 4.76481 97.7217 5.22832C97.7217 5.68582 97.5584 6.08112 97.2339 6.4122C96.9093 6.74328 96.5151 6.90983 96.0551 6.90983C95.6011 6.90983 95.2108 6.74529 94.8863 6.4122C94.5617 6.07911 94.3984 5.68582 94.3984 5.22832ZM97.5803 18.0423H94.5617V8.37261H97.5803V18.0423Z" fill="#15A959"/>
<path d="M99.8906 16.404C99.8906 15.9064 100.068 15.477 100.424 15.1178C100.781 14.7587 101.205 14.5801 101.701 14.5801C102.202 14.5801 102.63 14.7587 102.987 15.1178C103.343 15.477 103.521 15.9044 103.521 16.404C103.521 16.9097 103.343 17.3391 102.987 17.6943C102.63 18.0494 102.202 18.226 101.701 18.226C101.207 18.226 100.781 18.0474 100.424 17.6943C100.07 17.3391 99.8906 16.9097 99.8906 16.404Z" fill="#15A959"/>
<path d="M109.011 18.2273L104.574 8.37305H107.81L109.843 13.6985L111.914 8.37305H115.114L110.697 18.2273H109.011Z" fill="#15A959"/>
<path d="M119.413 8.37264V9.74513C120.301 8.69369 121.341 8.16797 122.533 8.16797C123.529 8.16797 124.361 8.48902 125.028 9.13112C125.695 9.77322 126.03 10.6922 126.03 11.8902V18.0423H123.011V12.145C123.011 10.8528 122.513 10.2066 121.518 10.2066C120.807 10.2066 120.104 10.7404 119.413 11.8039V18.0423H116.395V8.37264H119.413Z" fill="#15A959"/>
<path d="M4.90889 12.2461C2.23672 12.2461 0.0703125 14.4292 0.0703125 17.1221V21.998H9.74945V17.1221C9.74746 14.4292 7.58105 12.2461 4.90889 12.2461Z" fill="#15A959"/>
<path d="M12.0625 17.126C12.0625 19.8188 14.2289 21.9999 16.8991 21.9999H21.7357V12.25H16.9011C14.2289 12.25 12.0625 14.4331 12.0625 17.126Z" fill="#15A959"/>
<path d="M12.0664 0V4.87395C12.0664 7.56676 14.2328 9.7479 16.903 9.7479C19.5732 9.7479 21.7396 7.56476 21.7396 4.87395V0H12.0664Z" fill="#15A959"/>
<path d="M4.84654 0.0078125H0V9.75772H4.84654C7.51273 9.75772 9.67516 7.57859 9.67516 4.8918V4.87374C9.67516 2.18694 7.51273 0.0078125 4.84654 0.0078125Z" fill="#15A959"/>
</svg>
