<svg width="120" height="30" viewBox="0 0 120 30" fill="none" xmlns="http://www.w3.org/2000/svg">
<path d="M48.9432 12.9744L46.5994 13.2301C46.5331 12.9934 46.4171 12.7708 46.2514 12.5625C46.0904 12.3542 45.8726 12.1861 45.598 12.0582C45.3234 11.9304 44.9872 11.8665 44.5895 11.8665C44.0545 11.8665 43.6046 11.9825 43.2401 12.2145C42.8802 12.4465 42.7027 12.7472 42.7074 13.1165C42.7027 13.4337 42.8187 13.6918 43.0554 13.8906C43.2969 14.0895 43.6946 14.2528 44.2486 14.3807L46.1094 14.7784C47.1416 15.0009 47.9086 15.3537 48.4105 15.8366C48.9171 16.3196 49.1728 16.9517 49.1776 17.733C49.1728 18.4195 48.9716 19.0256 48.5739 19.5511C48.1809 20.072 47.634 20.4792 46.9332 20.7727C46.2325 21.0663 45.4276 21.2131 44.5185 21.2131C43.1832 21.2131 42.1084 20.9337 41.294 20.375C40.4796 19.8116 39.9943 19.0279 39.8381 18.0241L42.3452 17.7827C42.4588 18.2751 42.7003 18.6468 43.0696 18.8977C43.4389 19.1487 43.9195 19.2741 44.5114 19.2741C45.1222 19.2741 45.6122 19.1487 45.9815 18.8977C46.3556 18.6468 46.5426 18.3366 46.5426 17.9673C46.5426 17.6548 46.4219 17.3968 46.1804 17.1932C45.9437 16.9896 45.5743 16.8333 45.0724 16.7244L43.2116 16.3338C42.1652 16.116 41.3911 15.7491 40.8892 15.233C40.3873 14.7121 40.1387 14.054 40.1435 13.2585C40.1387 12.5862 40.321 12.0038 40.6903 11.5114C41.0644 11.0142 41.5829 10.6307 42.2457 10.3608C42.9134 10.0862 43.6828 9.94886 44.554 9.94886C45.8324 9.94886 46.8385 10.2211 47.5724 10.7656C48.3111 11.3101 48.768 12.0464 48.9432 12.9744ZM56.745 10.0909V12.0795H50.4737V10.0909H56.745ZM52.022 7.47727H54.593V17.7188C54.593 18.0644 54.6451 18.3295 54.7493 18.5142C54.8582 18.6941 55.0002 18.8172 55.1754 18.8835C55.3506 18.9498 55.5447 18.983 55.7578 18.983C55.9188 18.983 56.0656 18.9711 56.1982 18.9474C56.3355 18.9238 56.4396 18.9025 56.5107 18.8835L56.9439 20.8935C56.8066 20.9408 56.6101 20.9929 56.3544 21.0497C56.1035 21.1065 55.7957 21.1397 55.4311 21.1491C54.7872 21.1681 54.2071 21.071 53.6911 20.858C53.175 20.6402 52.7654 20.304 52.4624 19.8494C52.1641 19.3949 52.0173 18.8267 52.022 18.1449V7.47727ZM63.5366 21.2131C62.4712 21.2131 61.5479 20.9787 60.7667 20.5099C59.9854 20.0412 59.3794 19.3854 58.9485 18.5426C58.5224 17.6998 58.3093 16.715 58.3093 15.5881C58.3093 14.4612 58.5224 13.474 58.9485 12.6264C59.3794 11.7789 59.9854 11.1207 60.7667 10.652C61.5479 10.1832 62.4712 9.94886 63.5366 9.94886C64.6019 9.94886 65.5252 10.1832 66.3065 10.652C67.0877 11.1207 67.6914 11.7789 68.1175 12.6264C68.5484 13.474 68.7638 14.4612 68.7638 15.5881C68.7638 16.715 68.5484 17.6998 68.1175 18.5426C67.6914 19.3854 67.0877 20.0412 66.3065 20.5099C65.5252 20.9787 64.6019 21.2131 63.5366 21.2131ZM63.5508 19.1534C64.1284 19.1534 64.6114 18.9948 64.9996 18.6776C65.3879 18.3556 65.6767 17.9247 65.8661 17.3849C66.0603 16.8452 66.1573 16.2438 66.1573 15.581C66.1573 14.9134 66.0603 14.3097 65.8661 13.7699C65.6767 13.2254 65.3879 12.7921 64.9996 12.4702C64.6114 12.1482 64.1284 11.9872 63.5508 11.9872C62.9589 11.9872 62.4665 12.1482 62.0735 12.4702C61.6853 12.7921 61.3941 13.2254 61.1999 13.7699C61.0105 14.3097 60.9158 14.9134 60.9158 15.581C60.9158 16.2438 61.0105 16.8452 61.1999 17.3849C61.3941 17.9247 61.6853 18.3556 62.0735 18.6776C62.4665 18.9948 62.9589 19.1534 63.5508 19.1534ZM70.946 21V10.0909H73.4389V11.9091H73.5526C73.7514 11.2794 74.0923 10.794 74.5753 10.4531C75.063 10.1075 75.6193 9.93466 76.2443 9.93466C76.3864 9.93466 76.545 9.94176 76.7202 9.95597C76.9001 9.96544 77.0492 9.98201 77.1676 10.0057V12.3707C77.0587 12.3329 76.8859 12.2997 76.6491 12.2713C76.4171 12.2382 76.1922 12.2216 75.9744 12.2216C75.5057 12.2216 75.0843 12.3234 74.7102 12.527C74.3409 12.7259 74.0497 13.0028 73.8366 13.358C73.6236 13.7131 73.517 14.1226 73.517 14.5866V21H70.946ZM83.256 21.2131C82.1623 21.2131 81.2177 20.9858 80.4222 20.5312C79.6315 20.072 79.0231 19.4233 78.5969 18.5852C78.1708 17.7424 77.9577 16.7505 77.9577 15.6094C77.9577 14.4872 78.1708 13.5024 78.5969 12.6548C79.0278 11.8026 79.6291 11.1397 80.4009 10.6662C81.1727 10.188 82.0794 9.94886 83.1211 9.94886C83.7934 9.94886 84.4279 10.0578 85.0245 10.2756C85.6258 10.4886 86.1561 10.8201 86.6154 11.2699C87.0794 11.7197 87.444 12.2926 87.7092 12.9886C87.9743 13.6799 88.1069 14.5038 88.1069 15.4602V16.2486H79.1651V14.5156H85.6424C85.6377 14.0232 85.5311 13.5852 85.3228 13.2017C85.1145 12.8134 84.8233 12.508 84.4492 12.2855C84.0799 12.063 83.649 11.9517 83.1566 11.9517C82.631 11.9517 82.1694 12.0795 81.7717 12.3352C81.3739 12.5862 81.0638 12.9176 80.8413 13.3295C80.6235 13.7367 80.5122 14.1842 80.5075 14.6719V16.1847C80.5075 16.8191 80.6235 17.3636 80.8555 17.8182C81.0875 18.268 81.4118 18.6136 81.8285 18.8551C82.2451 19.0919 82.7328 19.2102 83.2915 19.2102C83.6656 19.2102 84.0041 19.1581 84.3072 19.054C84.6102 18.9451 84.873 18.7865 85.0955 18.5781C85.3181 18.3698 85.4862 18.1117 85.5998 17.804L88.0004 18.0739C87.8488 18.7083 87.56 19.2623 87.1339 19.7358C86.7125 20.2045 86.1727 20.5691 85.5146 20.8295C84.8564 21.0852 84.1036 21.2131 83.256 21.2131ZM91.8658 21.1562C91.4349 21.1562 91.0656 21.0047 90.7578 20.7017C90.45 20.3987 90.2985 20.0294 90.3033 19.5938C90.2985 19.1676 90.45 18.803 90.7578 18.5C91.0656 18.197 91.4349 18.0455 91.8658 18.0455C92.2824 18.0455 92.6446 18.197 92.9524 18.5C93.2649 18.803 93.4235 19.1676 93.4283 19.5938C93.4235 19.8826 93.3478 20.1454 93.201 20.3821C93.0589 20.6188 92.8696 20.8082 92.6328 20.9503C92.4008 21.0876 92.1451 21.1562 91.8658 21.1562ZM105.827 10.0909L101.942 21H99.1012L95.2163 10.0909H97.9577L100.465 18.1946H100.578L103.093 10.0909H105.827ZM110.177 14.608V21H107.606V10.0909H110.064V11.9446H110.191C110.442 11.3338 110.842 10.8485 111.392 10.4886C111.946 10.1288 112.63 9.94886 113.444 9.94886C114.197 9.94886 114.853 10.1098 115.412 10.4318C115.975 10.7538 116.411 11.2202 116.718 11.831C117.031 12.4418 117.185 13.1828 117.18 14.054V21H114.609V14.4517C114.609 13.7225 114.42 13.152 114.041 12.7401C113.667 12.3281 113.148 12.1222 112.485 12.1222C112.036 12.1222 111.636 12.2216 111.285 12.4205C110.94 12.6146 110.667 12.8963 110.468 13.2656C110.274 13.6349 110.177 14.0824 110.177 14.608Z" fill="white"/>
<path d="M23.8 5.14285C23.8 8.61435 19.8635 14.2857 17.08 14.2857C14.2965 14.2857 9.79999 8.61435 9.79999 5.14285C9.79999 1.67135 14.2965 0 17.08 0C19.8635 0 23.8 1.67135 23.8 5.14285Z" fill="white"/>
<path d="M5.03999 8.57142C8.44206 8.57142 14 12.5882 14 15.4286C14 18.2689 8.44206 22.8571 5.03999 22.8571C1.63792 22.8571 0 18.2689 0 15.4286C0 12.5882 1.63792 8.57142 5.03999 8.57142Z" fill="white"/>
<path d="M11.2 24.8572C11.2 21.3857 15.1365 15.7143 17.92 15.7143C20.7035 15.7143 25.2 21.3857 25.2 24.8572C25.2 28.3286 20.7035 30 17.92 30C15.1365 30 11.2 28.3286 11.2 24.8572Z" fill="white"/>
<path d="M29.96 21.4286C26.5579 21.4286 21 17.4118 21 14.5714C21 11.7311 26.5579 7.14287 29.96 7.14287C33.3621 7.14287 35 11.7311 35 14.5714C35 17.4118 33.3621 21.4286 29.96 21.4286Z" fill="white"/>
</svg>
