<svg width="22" height="18" viewBox="0 0 22 18" fill="none" xmlns="http://www.w3.org/2000/svg">
<path d="M20.5625 6.77779C20.8043 6.77779 21 6.579 21 6.33333V2.77779C21 1.79729 20.2152 1 19.25 1H1.75001C0.784834 1 0 1.79729 0 2.77779V6.33333C0 6.579 0.195686 6.77779 0.437514 6.77779C1.64362 6.77779 2.625 7.77475 2.625 9C2.625 10.2253 1.64362 11.2222 0.437514 11.2222C0.195686 11.2222 0 11.421 0 11.6667V15.2222C0 16.2027 0.784834 17 1.75001 17H19.25C20.2152 17 21 16.2027 21 15.2222V11.6667C21 11.421 20.8043 11.2222 20.5625 11.2222C19.3564 11.2222 18.375 10.2253 18.375 9C18.375 7.77475 19.3564 6.77779 20.5625 6.77779ZM17.5 9C17.5 10.5647 18.6429 11.8633 20.125 12.0794V15.2222C20.125 15.7122 19.7324 16.1111 19.25 16.1111H1.75001C1.26767 16.1111 0.875027 15.7122 0.875027 15.2222V12.0794C2.35713 11.8633 3.50003 10.5647 3.50003 9C3.50003 7.43533 2.35713 6.13671 0.875027 5.92058V2.77779C0.875027 2.28779 1.26767 1.88892 1.75001 1.88892H19.25C19.7324 1.88892 20.125 2.28779 20.125 2.77779V5.92058C18.6429 6.13671 17.5 7.43533 17.5 9Z" fill="white"/>
<path d="M5.69008 2.66699C5.44825 2.66699 5.25256 2.86578 5.25256 3.11145V4.11145C5.25256 4.35712 5.44825 4.55591 5.69008 4.55591C5.9319 4.55591 6.12759 4.35712 6.12759 4.11145V3.11145C6.12755 2.86578 5.9319 2.66699 5.69008 2.66699Z" fill="white"/>
<path d="M5.69008 6.33301C5.44825 6.33301 5.25256 6.5318 5.25256 6.77747V7.66634C5.25256 7.91201 5.44825 8.1108 5.69008 8.1108C5.9319 8.1108 6.12759 7.91201 6.12759 7.66634V6.77747C6.12755 6.5318 5.9319 6.33301 5.69008 6.33301Z" fill="white"/>
<path d="M5.69008 9.8877C5.44825 9.8877 5.25256 10.0865 5.25256 10.3322V11.221C5.25256 11.4667 5.44825 11.6655 5.69008 11.6655C5.9319 11.6655 6.12759 11.4667 6.12759 11.221V10.3322C6.12755 10.0865 5.9319 9.8877 5.69008 9.8877Z" fill="white"/>
<path d="M5.69008 13.4434C5.44825 13.4434 5.25256 13.6422 5.25256 13.8878V14.7767C5.25256 15.0224 5.44825 15.2212 5.69008 15.2212C5.9319 15.2212 6.12759 15.0224 6.12759 14.7767V13.8878C6.12755 13.6422 5.9319 13.4434 5.69008 13.4434Z" fill="white"/>
<path d="M14.682 4.63144C14.4795 4.49515 14.2091 4.55028 14.0753 4.75469L8.82534 12.7547C8.69118 12.9591 8.74544 13.2347 8.94667 13.371C9.02144 13.4214 9.1056 13.4457 9.1889 13.4457C9.33033 13.4457 9.46916 13.3762 9.55333 13.2478L14.8033 5.24778C14.9375 5.04332 14.8833 4.76774 14.682 4.63144Z" fill="white"/>
<path d="M11.375 6.77885C11.375 5.5536 10.5902 4.55664 9.62497 4.55664C8.65979 4.55664 7.875 5.55356 7.875 6.77885C7.875 8.00414 8.65983 9.00106 9.62501 9.00106C10.5902 9.00106 11.375 8.0041 11.375 6.77885ZM8.74998 6.77885C8.74998 6.05618 9.15075 5.44552 9.62497 5.44552C10.0992 5.44552 10.5 6.05618 10.5 6.77885C10.5 7.50152 10.0992 8.11218 9.62497 8.11218C9.15075 8.11218 8.74998 7.50147 8.74998 6.77885Z" fill="white"/>
<path d="M14.0009 9C13.0357 9 12.2509 9.99696 12.2509 11.2222C12.2509 12.4475 13.0357 13.4444 14.0009 13.4444C14.966 13.4444 15.7509 12.4475 15.7509 11.2222C15.7509 9.99696 14.966 9 14.0009 9ZM14.0009 12.5555C13.5266 12.5555 13.1259 11.9449 13.1259 11.2222C13.1259 10.4995 13.5266 9.88888 14.0009 9.88888C14.4751 9.88888 14.8759 10.4995 14.8759 11.2222C14.8759 11.9449 14.4751 12.5555 14.0009 12.5555Z" fill="white"/>
<path d="M20.5625 6.77779C20.8043 6.77779 21 6.579 21 6.33333V2.77779C21 1.79729 20.2152 1 19.25 1H1.75001C0.784834 1 0 1.79729 0 2.77779V6.33333C0 6.579 0.195686 6.77779 0.437514 6.77779C1.64362 6.77779 2.625 7.77475 2.625 9C2.625 10.2253 1.64362 11.2222 0.437514 11.2222C0.195686 11.2222 0 11.421 0 11.6667V15.2222C0 16.2027 0.784834 17 1.75001 17H19.25C20.2152 17 21 16.2027 21 15.2222V11.6667C21 11.421 20.8043 11.2222 20.5625 11.2222C19.3564 11.2222 18.375 10.2253 18.375 9C18.375 7.77475 19.3564 6.77779 20.5625 6.77779ZM17.5 9C17.5 10.5647 18.6429 11.8633 20.125 12.0794V15.2222C20.125 15.7122 19.7324 16.1111 19.25 16.1111H1.75001C1.26767 16.1111 0.875027 15.7122 0.875027 15.2222V12.0794C2.35713 11.8633 3.50003 10.5647 3.50003 9C3.50003 7.43533 2.35713 6.13671 0.875027 5.92058V2.77779C0.875027 2.28779 1.26767 1.88892 1.75001 1.88892H19.25C19.7324 1.88892 20.125 2.28779 20.125 2.77779V5.92058C18.6429 6.13671 17.5 7.43533 17.5 9Z" stroke="white" stroke-width="0.3"/>
<path d="M5.69008 2.66699C5.44825 2.66699 5.25256 2.86578 5.25256 3.11145V4.11145C5.25256 4.35712 5.44825 4.55591 5.69008 4.55591C5.9319 4.55591 6.12759 4.35712 6.12759 4.11145V3.11145C6.12755 2.86578 5.9319 2.66699 5.69008 2.66699Z" stroke="white" stroke-width="0.3"/>
<path d="M5.69008 6.33301C5.44825 6.33301 5.25256 6.5318 5.25256 6.77747V7.66634C5.25256 7.91201 5.44825 8.1108 5.69008 8.1108C5.9319 8.1108 6.12759 7.91201 6.12759 7.66634V6.77747C6.12755 6.5318 5.9319 6.33301 5.69008 6.33301Z" stroke="white" stroke-width="0.3"/>
<path d="M5.69008 9.8877C5.44825 9.8877 5.25256 10.0865 5.25256 10.3322V11.221C5.25256 11.4667 5.44825 11.6655 5.69008 11.6655C5.9319 11.6655 6.12759 11.4667 6.12759 11.221V10.3322C6.12755 10.0865 5.9319 9.8877 5.69008 9.8877Z" stroke="white" stroke-width="0.3"/>
<path d="M5.69008 13.4434C5.44825 13.4434 5.25256 13.6422 5.25256 13.8878V14.7767C5.25256 15.0224 5.44825 15.2212 5.69008 15.2212C5.9319 15.2212 6.12759 15.0224 6.12759 14.7767V13.8878C6.12755 13.6422 5.9319 13.4434 5.69008 13.4434Z" stroke="white" stroke-width="0.3"/>
<path d="M14.682 4.63144C14.4795 4.49515 14.2091 4.55028 14.0753 4.75469L8.82534 12.7547C8.69118 12.9591 8.74544 13.2347 8.94667 13.371C9.02144 13.4214 9.1056 13.4457 9.1889 13.4457C9.33033 13.4457 9.46916 13.3762 9.55333 13.2478L14.8033 5.24778C14.9375 5.04332 14.8833 4.76774 14.682 4.63144Z" stroke="white" stroke-width="0.3"/>
<path d="M11.375 6.77885C11.375 5.5536 10.5902 4.55664 9.62497 4.55664C8.65979 4.55664 7.875 5.55356 7.875 6.77885C7.875 8.00414 8.65983 9.00106 9.62501 9.00106C10.5902 9.00106 11.375 8.0041 11.375 6.77885ZM8.74998 6.77885C8.74998 6.05618 9.15075 5.44552 9.62497 5.44552C10.0992 5.44552 10.5 6.05618 10.5 6.77885C10.5 7.50152 10.0992 8.11218 9.62497 8.11218C9.15075 8.11218 8.74998 7.50147 8.74998 6.77885Z" stroke="white" stroke-width="0.3"/>
<path d="M14.0009 9C13.0357 9 12.2509 9.99696 12.2509 11.2222C12.2509 12.4475 13.0357 13.4444 14.0009 13.4444C14.966 13.4444 15.7509 12.4475 15.7509 11.2222C15.7509 9.99696 14.966 9 14.0009 9ZM14.0009 12.5555C13.5266 12.5555 13.1259 11.9449 13.1259 11.2222C13.1259 10.4995 13.5266 9.88888 14.0009 9.88888C14.4751 9.88888 14.8759 10.4995 14.8759 11.2222C14.8759 11.9449 14.4751 12.5555 14.0009 12.5555Z" stroke="white" stroke-width="0.3"/>
</svg>
