<svg width="14" height="16" viewBox="0 0 14 16" fill="none" xmlns="http://www.w3.org/2000/svg">
<path d="M13.216 4.80958L8.54933 0.613173C8.10133 0.204391 7.58489 0 7 0C6.41511 0 5.89867 0.204391 5.45067 0.613173L0.784 4.80958C0.535111 5.03952 0.342222 5.31417 0.205334 5.63353C0.0684446 5.94012 0 6.26587 0 6.61078V13.6048C0 14.0391 0.105778 14.4351 0.317333 14.7928C0.528889 15.1633 0.808889 15.4571 1.15733 15.6743C1.51822 15.8914 1.91022 16 2.33333 16H11.6667C12.0898 16 12.4756 15.8914 12.824 15.6743C13.1849 15.4571 13.4711 15.1633 13.6827 14.7928C13.8942 14.4351 14 14.0391 14 13.6048V6.61078C14 6.26587 13.9316 5.94012 13.7947 5.63353C13.6578 5.31417 13.4649 5.03952 13.216 4.80958ZM8.54933 14.3904H5.45067V10.4048C5.45067 10.1876 5.52533 10.0024 5.67467 9.8491C5.824 9.68303 6.00444 9.6 6.216 9.6H7.784C7.99556 9.6 8.176 9.68303 8.32533 9.8491C8.47467 10.0024 8.54933 10.1876 8.54933 10.4048V14.3904ZM12.4507 13.6048C12.4507 13.822 12.3698 14.0072 12.208 14.1605C12.0587 14.3138 11.8782 14.3904 11.6667 14.3904H10.1173V10.4048C10.1173 9.97046 10.0116 9.57445 9.8 9.21677C9.58844 8.84631 9.30222 8.5525 8.94133 8.33533C8.59289 8.11816 8.20711 8.00958 7.784 8.00958H6.216C5.79289 8.00958 5.40089 8.11816 5.04 8.33533C4.69156 8.5525 4.41156 8.84631 4.2 9.21677C3.98844 9.57445 3.88267 9.97046 3.88267 10.4048V14.3904H2.33333C2.12178 14.3904 1.93511 14.3138 1.77333 14.1605C1.624 14.0072 1.54933 13.822 1.54933 13.6048V6.61078C1.56178 6.36806 1.65511 6.17006 1.82933 6.01677L6.496 1.82036C6.64533 1.69261 6.81333 1.62874 7 1.62874C7.19911 1.62874 7.37333 1.69261 7.52267 1.82036L12.1893 6.01677C12.3636 6.17006 12.4507 6.36806 12.4507 6.61078V13.6048Z" fill="white"/>
</svg>
