<svg width="16" height="16" viewBox="0 0 16 16" fill="none" xmlns="http://www.w3.org/2000/svg">
<path d="M14.6676 1.33328C14.2446 0.910015 13.7582 0.585513 13.2083 0.359772C12.6584 0.119924 12.0804 0 11.4741 0C10.8678 0 10.2897 0.119924 9.73987 0.359772C9.18999 0.585513 8.70356 0.910015 8.28058 1.33328L1.44942 8.19014C0.843144 8.75449 0.420162 9.43171 0.180472 10.2218C-0.0451181 11.0119 -0.0592175 11.809 0.138174 12.6132C0.349665 13.4174 0.744448 14.1088 1.32252 14.6872C1.9006 15.2657 2.59147 15.6537 3.39514 15.8512C4.1988 16.0628 4.99542 16.0487 5.78498 15.8089C6.57455 15.5831 7.25132 15.1669 7.8153 14.5602L14.6676 7.72455C15.0906 7.30129 15.4149 6.81453 15.6405 6.26429C15.8802 5.71405 16 5.13559 16 4.52891C16 3.92224 15.8802 3.34378 15.6405 2.79353C15.4149 2.24329 15.0906 1.75654 14.6676 1.33328ZM6.5675 13.3328C6.21502 13.6714 5.79908 13.9042 5.3197 14.0312C4.85442 14.144 4.38209 14.144 3.90271 14.0312C3.43743 13.9042 3.02855 13.6714 2.67607 13.3328C2.42228 13.0788 2.22489 12.7825 2.08389 12.4439C1.9429 12.1053 1.8724 11.7526 1.8724 11.3858C1.8724 11.0189 1.9429 10.6662 2.08389 10.3276C2.22489 9.989 2.42228 9.69272 2.67607 9.43876L5.4889 6.62406L9.38033 10.5181L6.5675 13.3328ZM13.4198 6.47592L10.607 9.26946L6.73669 5.3966L9.52838 2.5819C9.88086 2.22918 10.2897 1.99639 10.755 1.88352C11.2344 1.75654 11.7067 1.75654 12.172 1.88352C12.6514 1.99639 13.0673 2.22918 13.4198 2.5819C13.7723 2.93462 14.0049 3.35083 14.1177 3.83053C14.2446 4.29612 14.2446 4.76876 14.1177 5.24846C14.0049 5.71405 13.7723 6.1232 13.4198 6.47592Z" fill="white"/>
</svg>
