<svg width="20" height="20" viewBox="0 0 20 20" fill="none" xmlns="http://www.w3.org/2000/svg">
<path d="M18.5576 0H1.44242C0.645742 0 0 0.645742 0 1.44242V18.5576C0 19.3543 0.645742 20 1.44242 20H18.5576C19.3543 20 20 19.3543 20 18.5576V1.44242C20 0.645742 19.3543 0 18.5576 0V0ZM15.0096 7.65465V9.00672C14.3721 9.00695 13.7526 8.88203 13.1684 8.63551C12.7927 8.47691 12.4427 8.27254 12.1226 8.02563L12.1322 12.1874C12.1282 13.1246 11.7574 14.0051 11.0864 14.6683C10.5403 15.2081 9.84832 15.5514 9.09832 15.6625C8.92207 15.6886 8.74273 15.702 8.56137 15.702C7.75852 15.702 6.99625 15.4419 6.37273 14.9621C6.25539 14.8717 6.1432 14.7738 6.03633 14.6683C5.3091 13.9495 4.9341 12.9753 4.99723 11.9505C5.04543 11.1704 5.35773 10.4264 5.8784 9.84328C6.56727 9.07164 7.53098 8.64332 8.56137 8.64332C8.74273 8.64332 8.92207 8.65691 9.09832 8.68305V9.18297V10.5736C8.93125 10.5185 8.75277 10.4882 8.56695 10.4882C7.62555 10.4882 6.86395 11.2563 6.87801 12.1983C6.88691 12.8011 7.21621 13.328 7.70184 13.6184C7.93004 13.755 8.19262 13.8395 8.47281 13.8549C8.69234 13.8669 8.90312 13.8364 9.09832 13.7719C9.7709 13.5497 10.2561 12.918 10.2561 12.1729L10.2583 9.38594V4.29797H12.1204C12.1221 4.48246 12.1409 4.6625 12.1757 4.83691C12.3162 5.54297 12.7142 6.15555 13.2681 6.57316C13.7511 6.93746 14.3525 7.1534 15.0043 7.1534C15.0048 7.1534 15.0101 7.1534 15.0097 7.15297V7.65465H15.0096Z" fill="black"/>
</svg>
